# xmcd
#
# Track frame offsets: 
#        150
#        9746
#        24218
#        36167
#        45681
#        57404
#        67495
#        80213
#        90713
#        99217
#        110807
#        123600
#        135914
#        148027
#        160882
#        171275
#
# Disc length: 2406 seconds
#
# Revision: 0
# Processed by: cddbd v1.5.2PL0 Copyright (c) Steve Scherf et al.
# Submitted via: ExactAudioCopy v0.99pb4
#
DISCID=e3096410
DTITLE=Various Artist - 16 Country Legends Sing Their Original Hits Vol. 2
DYEAR=1980
DGENRE=Classic Country
TTITLE0=Hank Locklin - Send Me the Pillow You Dream On
TTITLE1=Cowboy Copas - A Satisfied Mind
TTITLE2=Webb Pierce - High Geared Daddy
TTITLE3=T. Texas Tyler - Careless Love
TTITLE4=Patsy Cling - Walkin' After Midnight
TTITLE5=Dave Dudley - Six Days on the Road
TTITLE6=Maddox Bros. and Rose - Mama Says It's Naughty
TTITLE7=George Jones - No Money in This Deal
TTITLE8=Sonny James - Bimbo
TTITLE9=Floyd Cramer - Fancy Pants
TTITLE10=Al Dexter - Pistol Packin' Mama
TTITLE11=Ferlin Husky - The Letter You Promised to Write
TTITLE12=Rocky Bill Ford - Beer Drinkin' Blues
TTITLE13=Faron Young - I'm a Free Man
TTITLE14=Johnny Paycheck - A - 11
TTITLE15=Wynn Stewart - Above and Beyond
EXTD=
EXTT0=
EXTT1=
EXTT2=
EXTT3=
EXTT4=
EXTT5=
EXTT6=
EXTT7=
EXTT8=
EXTT9=
EXTT10=
EXTT11=
EXTT12=
EXTT13=
EXTT14=
EXTT15=
PLAYORDER=
